<?xml version="1.0" encoding="utf-8"?>
<!-- Generator: Adobe Illustrator 22.0.0, SVG Export Plug-In . SVG Version: 6.00 Build 0)  -->
<svg version="1.1" id="Layer_1" xmlns="http://www.w3.org/2000/svg" xmlns:xlink="http://www.w3.org/1999/xlink" x="0px" y="0px"
	 width="300px" height="300px" viewBox="0 0 300 300" style="enable-background:new 0 0 300 300;" xml:space="preserve">
<path d="M291.3,272c-0.7,2.7-2.8,3.9-5.1,4.8c-8,3.3-16.3,5.8-24.7,7.8c-12.9,3.1-26,5.1-39.2,6.6c-23.8,2.8-47.7,3.8-71.7,3.9
	c-16.6,0-33.2-0.6-49.8-1.8c-17.3-1.3-34.6-3.3-51.7-6.7c-11-2.2-21.8-5.1-32.3-9.2c-6.2-2.4-7-3.8-6.4-10.4
	c1.3-15.7,5.3-30.6,12.2-44.8c7.1-14.6,17.8-25.4,32.3-32.6c15.2-7.5,30.8-14,46.6-20.3c1.2-0.5,1.8-0.2,2.1,1
	c2.4,8.6,4.8,17.2,7.3,25.7c5.5,19,11.7,37.7,20.4,55.6c0.8,1.7,1.7,3.4,2.6,5.1c0.1,0,0.3,0,0.4,0c0.4-2,0.9-4.1,1.2-6.1
	c1.2-6.9,2.3-13.8,3.4-20.8c0.2-1.3,0.1-2.4-1.4-3.1c-0.6-0.3-1.2-1.2-1.3-1.9c-1.7-8.5-3.3-17-4.8-25.5c-0.1-0.6-0.1-1.1-0.1-1.7
	c0.2-1.7,1.2-2.6,2.9-2.6c10.9,0,21.8,0,32.7,0c2.5,0,3.6,1.1,3.3,3.7c-0.3,2.3-0.6,4.5-1.1,6.8c-1.2,6.1-2.4,12.3-3.7,18.4
	c-0.3,1.4-0.6,2.6-2.2,3.3c-1.1,0.5-0.8,1.6-0.6,2.6c0.5,3.5,1,7.1,1.6,10.6c0.8,5.1,1.7,10.2,2.6,15.2c0.1,0.3,0.2,0.6,0.4,1.3
	c0.6-0.9,1.2-1.6,1.5-2.4c2.7-6,5.5-12.1,8.1-18.2c8.2-19.8,13.9-40.5,19.5-61.2c0.6-2.1,1.2-4.1,1.8-6.4c2.2,0.8,4.1,1.4,6,2.1
	c14.3,5.6,28.4,11.5,42.1,18.4c10.5,5.2,19.6,12.2,26.4,22c6.2,8.9,10.3,18.8,13.5,29.1c2.6,8.4,4.3,16.9,4.9,25.7
	c0,0.4,0.2,0.8,0.2,1.2C291.3,268.9,291.3,270.5,291.3,272z"/>
<path d="M151.4,14.2c2.9,0.3,5.9,0.5,8.8,0.9c9.4,1.3,18.4,3.8,26.5,8.9c5.5,3.5,9.1,8.4,10.8,14.6c0.9,3.2,2.3,6,4.4,8.6
	c3.6,4.5,5.4,9.9,6.2,15.5c0.7,4.7,0.9,9.4,1.2,14.1c0.2,2.9,0,5.7,0,8.6c0,1.2,0.4,2.2,1.4,3.1c2.8,2.5,3.4,5.9,3.8,9.5
	c1.4,14.3-3.6,26.5-12.5,37.4c-2.3,2.9-4.2,6-5.4,9.5c-4.2,11.5-11,21.1-21,28.3c-15.8,11.3-34.5,11.1-50.1-0.5
	c-9.7-7.2-16.4-16.6-20.4-27.9c-1.2-3.4-3-6.5-5.3-9.3c-6.3-7.6-10.8-16.2-12.3-26.1c-0.8-5.4-0.6-11,0.8-16.4
	c0.4-1.6,1.5-3.2,2.7-4.4c1.2-1.1,1.7-2.2,1.8-3.7c0.2-7,0.3-14,0.6-21.1c0.4-11.9,4.7-22.4,12.2-31.4c6.1-7.4,14.4-11.9,23.4-14.8
	c5.8-1.9,11.8-3.1,18-3.3c0.4,0,0.7-0.1,1.1-0.2C149.1,14.2,150.2,14.2,151.4,14.2z"/>
</svg>
