<?xml version="1.0" encoding="utf-8"?>
<!-- Generator: Adobe Illustrator 22.0.0, SVG Export Plug-In . SVG Version: 6.00 Build 0)  -->
<svg version="1.1" id="Layer_1" xmlns="http://www.w3.org/2000/svg" xmlns:xlink="http://www.w3.org/1999/xlink" x="0px" y="0px"
	 width="300px" height="300px" viewBox="0 0 300 300" style="enable-background:new 0 0 300 300;" xml:space="preserve">
<style type="text/css">
	.st0{fill:#FFFFFF;}
</style>
<path d="M274.1,287.2c-83.1,0-166.1,0-249.2,0c-0.2-3-0.5-6-0.6-9c-0.1-6.7-0.2-13.4,0-20c0.4-9.1,2-17.9,5.8-26.3
	c3.6-8,9.2-14.2,16.3-19.3c7.5-5.4,15.8-9.2,23.9-13.4c9.7-5,19.4-10,29-15.3c4.7-2.6,9-5.8,13.5-8.8c0.4-0.2,0.7-0.8,0.7-1.3
	c0.1-4,0-8,0-12.1c0-0.5-0.2-1-0.5-1.5c-4.3-7.5-7.3-15.5-9.4-23.8c-0.2-0.9-0.6-1.5-1.5-2c-3.7-1.8-5.6-5.3-6.9-9
	c-2.4-6.9-2.9-14-1.1-21.1c0.6-2.3,1.7-4.5,2.2-6.9c0.3-1.3,0-2.8-0.2-4.1c-1.6-7.9-2.5-15.9-2.7-23.9c-0.2-8.1,0.7-16.1,3.5-23.8
	c3.4-9.3,9.3-16.5,17.7-21.8c10.3-6.5,21.7-9.9,33.9-10c13.6-0.1,25.9,3.8,36.4,12.5c7.9,6.5,13.2,14.8,16.1,24.7
	c1.4,4.7,2.1,9.5,2.2,14.4c0.3,8.5,0.5,17,0.6,25.5c0,0.9-0.1,1.8-0.3,2.6c-0.8,2.8,0.5,5.2,1.3,7.8c2.6,8.7,2.6,17.4-1,25.8
	c-1.5,3.5-3.6,6.6-7.6,7.9c-0.3,0.1-0.6,0.7-0.7,1.1c-2.4,9.6-5.9,18.8-11.3,27.2c-0.2,0.4-0.4,0.9-0.4,1.3c0,2.7,0,5.3,0,8
	c0,0.4,0.3,1,0.7,1.3c8.6,6,17.4,11.7,26.8,16.5c9.9,5.1,20,10,29.9,15.1c7.4,3.8,14.4,8.4,20,14.7c5.7,6.3,9.2,13.7,11.2,21.8
	c3.2,12.9,3,26,2.2,39.1C274.4,283.2,274.2,285.1,274.1,287.2z M97.4,101c-0.3,0.6-0.5,0.9-0.5,1.2c-0.5,3.4-1.3,6.8-1.5,10.3
	c-0.2,5.1,0.6,10,2.9,14.7c1.3,2.7,3,5,6,5.9c0.4,0.1,0.8,0.8,1,1.2c1.5,4.6,2.7,9.3,4.4,13.8c3.4,9.1,8.2,17.4,15.3,24.2
	c5.1,4.9,11,8.5,18,10c9.2,1.9,17.7-0.2,25.4-5.4c8.6-5.9,14.3-14.2,18.7-23.5c2.9-6.1,4.9-12.4,6.5-18.9c0.2-0.9,0.7-1.1,1.5-1.5
	c1.4-0.6,2.9-1.2,3.9-2.3c1.4-1.7,2.6-3.6,3.4-5.7c2.1-5.5,2.5-11.2,1.7-17c-0.1-1.1-0.4-2.2-0.6-3.3c-0.2-1-0.5-2-0.8-3
	c-1.2,3.7-2.2,7.4-4.2,10.8c-0.8-4.3-1.3-8.6-1.9-12.8c-0.9-6.7-1.8-13.3-2.9-19.9c-0.9-5.4-2.8-10.6-5.9-15.1
	c-4.5-6.5-11-9.3-18.8-10.1c2.8,5.5,5.6,10.8,8.3,16.2c-13.5-7.6-27.6-13-43.1-14.3c4.2,2.4,7.1,5.9,10.2,9.8
	c-0.6-0.1-0.9-0.1-1.1-0.2c-5.1-0.9-10.2-1.9-15.4-1.7c-8.7,0.3-14.5,4.6-18,12.4c-2.8,6.1-3.8,12.5-4.8,19c-0.8,5-1.2,10-1.9,15
	c-0.3,2.6-0.8,5.1-1.2,7.6c-0.1,0-0.3,0-0.4,0C100.1,112.6,98.8,106.9,97.4,101z M114,177c5.3,7.3,10.9,13.9,17.2,20
	c5.3,5.2,11,9.8,17.1,13.9c0.8,0.5,1.5,0.6,2.3,0c2.4-1.8,4.9-3.5,7.3-5.2c8.8-6.5,16.8-14,23.4-22.8c1.3-1.8,2.5-3.7,3.8-5.6
	c-0.9-0.6-1.6-1.2-2.3-1.6c-1.1-0.5-1.5-1.3-1.4-2.5c0.1-1.8,0-3.6,0-5.8c-0.5,0.5-0.7,0.8-0.9,1c-4.5,5.7-9.7,10.3-16.3,13.5
	c-8.1,3.9-16.5,4.6-25.1,1.8c-9.3-3-16.3-9.2-22.1-16.9c-0.3-0.5-0.7-0.9-1.3-1.7c0,3.1,0,5.8,0,8.5C115.8,174.9,116,176.4,114,177z
	 M218.7,261.7c0.1-8.5-6.7-15.3-15.2-15.5c-8.5-0.1-15.5,6.8-15.5,15.3c0,8.4,6.9,15.2,15.4,15.3C211.6,277,218.6,270,218.7,261.7z
	 M106.8,181.9c1.2,1.6,2.4,3.1,3.6,4.6c6.3,7.8,13,15.1,20.4,21.8c5.6,5,11.5,9.5,17.8,13.4c0.4,0.3,1.3,0.3,1.6,0
	c3.7-2.5,7.4-5,10.9-7.7c9.2-7,17.5-15.1,25.1-23.8c2.2-2.5,4.3-5.1,6.6-7.8c-2-1.3-3.9-2.5-5.8-3.7c-0.2,0.3-0.4,0.5-0.6,0.7
	c-5.8,8.5-12.6,16.1-20.3,23c-4.8,4.3-9.9,8.3-15.8,11.2c-0.5,0.2-1.4,0.3-1.8,0c-2.9-1.7-5.9-3.4-8.5-5.5
	c-8.6-6.6-15.7-14.7-22.6-22.8c-1.9-2.2-3.8-4.4-5.7-6.6C110.1,179.7,108.5,180.8,106.8,181.9z M31.5,270.6c0,0.5,0,1.1,0,1.6
	c0.1,2.9,0.2,5.7,0.3,8.6c0.1,1.6,1.2,2.6,2.6,2.5c1.6,0,2.6-1.1,2.6-2.7c0-0.7,0-1.5-0.1-2.2c-0.5-9.3-0.4-18.7,1.2-27.9
	c2.3-13.3,8.7-23.9,20-31.5c8.9-6,18.7-10.3,28.1-15.3c5-2.6,10-5.3,14.9-8.1c1.3-0.7,1.8-2.5,1.2-3.6c-0.8-1.3-2.4-1.7-3.8-1
	c-2.3,1.2-4.6,2.5-6.9,3.7c-6.9,3.6-13.7,7.1-20.6,10.7c-7.2,3.7-14.3,7.5-20.7,12.6c-8.1,6.4-13.3,14.7-16.1,24.6
	C31.9,251.7,31.5,261.1,31.5,270.6z M267.1,269c0.1,0,0.2,0,0.4,0c-0.1-8.3-0.5-16.5-2.5-24.6c-2.6-10.7-8-19.6-16.7-26.5
	c-6.3-5-13.4-8.8-20.5-12.5c-9-4.7-18-9.4-27-14.1c-1.8-1-3.3-0.8-4.2,0.6c-0.9,1.4-0.3,3,1.6,4c9.3,4.9,18.6,9.7,27.9,14.6
	c6.5,3.4,12.9,6.8,18.6,11.5c5.5,4.5,9.8,10,12.6,16.6c3.6,8.5,4.7,17.5,4.9,26.6c0.1,5-0.2,10.1-0.3,15.1c0,2.3,1.8,3.6,3.7,2.7
	c1.2-0.5,1.5-1.6,1.5-2.8C267.1,276.5,267.1,272.7,267.1,269z M107.9,261.6c0-2.3,0-4.6,0-7c0-0.5-0.4-1.2-0.8-1.5
	c-4.1-2.4-8.3-4.8-12.4-7.2c-0.3-0.2-0.9-0.2-1.1,0c-4.2,2.4-8.4,4.8-12.5,7.3c-0.4,0.2-0.7,0.8-0.7,1.2c0,4.7,0,9.4,0,14.1
	c0,0.5,0.4,1.2,0.8,1.4c3.9,2.4,7.9,4.6,11.9,7c0.8,0.5,1.4,0.4,2.1,0c4-2.4,8-4.6,12-7c0.4-0.2,0.7-0.9,0.7-1.4
	C108,266.2,107.9,263.9,107.9,261.6z M42.7,267c0,3-0.1,6,0,9c0.1,2.3,2,3.5,3.8,2.6c1.4-0.7,1.5-1.9,1.5-3.3
	c-0.4-8.3-0.4-16.6,1.3-24.8c2.3-10.8,8.7-18.6,18.1-24c6.1-3.5,12.4-6.6,18.6-9.8c3.9-2.1,7.8-4.1,11.6-6.2c1.9-1,2.2-3.1,0.9-4.5
	c-0.9-0.9-2.3-0.9-3.9-0.1c-5.5,3-11,5.8-16.5,8.8c-5.6,3-11.3,5.9-16.7,9.3c-8.2,5.1-13.8,12.2-16.5,21.6
	C42.9,252.6,42.4,259.8,42.7,267z M256.3,267.3c0.2,0,0.4,0,0.7,0c-0.6-5.6-0.9-11.3-1.8-16.8c-1.2-7.3-4.1-14-9.2-19.5
	c-4.1-4.4-9-7.8-14.3-10.6c-5.6-3-11.3-5.9-17-8.8c-3.6-1.9-7.2-3.8-10.7-5.8c-1.7-0.9-3.1-0.7-3.9,0.7c-0.9,1.6-0.5,3.1,1.2,4
	c3.8,2.1,7.7,4.1,11.5,6.1c6.9,3.7,14,7.3,20.7,11.3c5.2,3,9.4,7.3,12.3,12.7c3.8,7.1,5,14.8,5.2,22.7c0.1,4.2-0.1,8.5-0.2,12.8
	c0,2.2,1.9,3.6,3.8,2.7c1.2-0.6,1.6-1.7,1.6-2.9C256.4,272.9,256.3,270.1,256.3,267.3z"/>
<path class="st0" d="M97.4,101c1.3,5.9,2.6,11.6,3.9,17.2c0.1,0,0.3,0,0.4,0c0.4-2.5,0.9-5.1,1.2-7.6c0.7-5,1.1-10,1.9-15
	c1-6.5,2.1-13,4.8-19c3.5-7.8,9.4-12.1,18-12.4c5.2-0.2,10.3,0.8,15.4,1.7c0.3,0,0.6,0.1,1.1,0.2c-3.1-3.9-6-7.4-10.2-9.8
	c15.5,1.2,29.6,6.7,43.1,14.3c-2.7-5.3-5.5-10.6-8.3-16.2c7.8,0.8,14.3,3.7,18.8,10.1c3.2,4.6,5,9.7,5.9,15.1
	c1.2,6.6,2,13.3,2.9,19.9c0.6,4.3,1.1,8.5,1.9,12.8c2-3.3,3-7,4.2-10.8c0.3,1,0.6,2,0.8,3c0.2,1.1,0.5,2.2,0.6,3.3
	c0.8,5.8,0.4,11.5-1.7,17c-0.8,2-2,4-3.4,5.7c-0.9,1.1-2.5,1.7-3.9,2.3c-0.8,0.3-1.3,0.6-1.5,1.5c-1.5,6.5-3.6,12.8-6.5,18.9
	c-4.4,9.3-10.1,17.6-18.7,23.5c-7.7,5.3-16.1,7.4-25.4,5.4c-7-1.5-12.9-5.1-18-10c-7.1-6.8-11.9-15.1-15.3-24.2
	c-1.7-4.5-2.9-9.2-4.4-13.8c-0.2-0.5-0.5-1.1-1-1.2c-3.1-0.9-4.7-3.2-6-5.9c-2.3-4.6-3.1-9.6-2.9-14.7c0.2-3.4,1-6.9,1.5-10.3
	C97,101.8,97.2,101.6,97.4,101z"/>
<path class="st0" d="M114,177c2-0.5,1.8-2.1,1.8-3.6c0-2.7,0-5.3,0-8.5c0.6,0.8,1,1.2,1.3,1.7c5.8,7.7,12.7,13.9,22.1,16.9
	c8.6,2.8,17,2.1,25.1-1.8c6.5-3.1,11.8-7.8,16.3-13.5c0.2-0.2,0.4-0.4,0.9-1c0,2.2,0.1,4,0,5.8c-0.1,1.2,0.3,2,1.4,2.5
	c0.8,0.4,1.4,1,2.3,1.6c-1.3,1.9-2.5,3.8-3.8,5.6c-6.6,8.9-14.5,16.3-23.4,22.8c-2.4,1.8-4.9,3.5-7.3,5.2c-0.8,0.6-1.5,0.5-2.3,0
	c-6.2-4.1-11.9-8.7-17.1-13.9C124.9,190.9,119.3,184.2,114,177z"/>
<path class="st0" d="M218.7,261.7c-0.1,8.3-7.1,15.3-15.3,15.2c-8.5-0.1-15.4-7-15.4-15.3c0-8.5,7-15.4,15.5-15.3
	C212,246.4,218.7,253.2,218.7,261.7z"/>
<path class="st0" d="M106.8,181.9c1.7-1.1,3.3-2.1,5-3.2c1.9,2.3,3.8,4.4,5.7,6.6c7,8.2,14,16.3,22.6,22.8c2.7,2,5.6,3.7,8.5,5.5
	c0.4,0.3,1.3,0.2,1.8,0c5.9-2.9,11-6.9,15.8-11.2c7.7-6.9,14.5-14.5,20.3-23c0.2-0.2,0.4-0.4,0.6-0.7c1.9,1.2,3.7,2.4,5.8,3.7
	c-2.2,2.7-4.3,5.3-6.6,7.8c-7.6,8.7-15.9,16.8-25.1,23.8c-3.5,2.7-7.2,5.2-10.9,7.7c-0.4,0.3-1.2,0.3-1.6,0
	c-6.3-3.9-12.3-8.4-17.8-13.4c-7.5-6.7-14.2-14-20.4-21.8C109.2,185,108,183.5,106.8,181.9z"/>
<path class="st0" d="M31.5,270.6c-0.1-9.4,0.3-18.8,2.9-28c2.7-9.9,8-18.1,16.1-24.6c6.4-5.1,13.5-8.8,20.7-12.6
	c6.9-3.6,13.7-7.1,20.6-10.7c2.3-1.2,4.6-2.5,6.9-3.7c1.4-0.8,3-0.4,3.8,1c0.7,1.1,0.2,2.9-1.2,3.6c-5,2.7-9.9,5.4-14.9,8.1
	c-9.4,5-19.2,9.3-28.1,15.3c-11.3,7.6-17.7,18.2-20,31.5c-1.6,9.3-1.7,18.6-1.2,27.9c0,0.7,0.1,1.5,0.1,2.2c0,1.6-1,2.7-2.6,2.7
	c-1.4,0-2.5-0.9-2.6-2.5c-0.2-2.8-0.2-5.7-0.3-8.6C31.5,271.6,31.5,271.1,31.5,270.6z"/>
<path class="st0" d="M267.1,269c0,3.8,0,7.5,0,11.3c0,1.2-0.3,2.2-1.5,2.8c-2,0.9-3.8-0.5-3.7-2.7c0.1-5,0.4-10.1,0.3-15.1
	c-0.2-9.1-1.3-18.1-4.9-26.6c-2.8-6.6-7-12.1-12.6-16.6c-5.7-4.6-12.1-8.1-18.6-11.5c-9.3-4.9-18.6-9.7-27.9-14.6
	c-1.9-1-2.4-2.6-1.6-4c0.9-1.4,2.3-1.6,4.2-0.6c9,4.7,18,9.4,27,14.1c7.1,3.7,14.2,7.4,20.5,12.5c8.7,6.9,14,15.8,16.7,26.5
	c2,8.1,2.4,16.3,2.5,24.6C267.4,269,267.3,269,267.1,269z"/>
<path class="st0" d="M107.9,261.6c0,2.3,0,4.6,0,7c0,0.5-0.3,1.1-0.7,1.4c-4,2.4-8,4.6-12,7c-0.8,0.4-1.3,0.5-2.1,0
	c-3.9-2.3-7.9-4.6-11.9-7c-0.4-0.3-0.8-0.9-0.8-1.4c-0.1-4.7-0.1-9.4,0-14.1c0-0.4,0.3-1,0.7-1.2c4.2-2.5,8.3-4.9,12.5-7.3
	c0.3-0.2,0.8-0.2,1.1,0c4.2,2.4,8.3,4.7,12.4,7.2c0.4,0.2,0.8,0.9,0.8,1.5C108,256.9,107.9,259.2,107.9,261.6z"/>
<path class="st0" d="M42.7,267c-0.3-7.3,0.2-14.5,2.2-21.5c2.7-9.4,8.3-16.6,16.5-21.6c5.4-3.3,11.1-6.2,16.7-9.3
	c5.5-3,11-5.9,16.5-8.8c1.6-0.9,3-0.9,3.9,0.1c1.3,1.4,1,3.4-0.9,4.5c-3.8,2.1-7.7,4.2-11.6,6.2c-6.2,3.3-12.5,6.4-18.6,9.8
	c-9.4,5.4-15.8,13.2-18.1,24c-1.8,8.2-1.8,16.5-1.3,24.8c0.1,1.4-0.1,2.7-1.5,3.3c-1.8,0.9-3.7-0.3-3.8-2.6
	C42.6,273.1,42.7,270,42.7,267z"/>
<path class="st0" d="M256.3,267.3c0,2.8,0,5.6,0,8.4c0,1.2-0.4,2.3-1.6,2.9c-1.9,0.9-3.8-0.5-3.8-2.7c0.1-4.3,0.3-8.5,0.2-12.8
	c-0.2-7.9-1.4-15.6-5.2-22.7c-2.9-5.4-7.1-9.6-12.3-12.7c-6.8-4-13.8-7.5-20.7-11.3c-3.8-2.1-7.7-4.1-11.5-6.1
	c-1.7-0.9-2.1-2.3-1.2-4c0.8-1.4,2.2-1.6,3.9-0.7c3.6,1.9,7.1,3.9,10.7,5.8c5.6,3,11.4,5.8,17,8.8c5.3,2.8,10.2,6.1,14.3,10.6
	c5.1,5.6,8,12.2,9.2,19.5c0.9,5.6,1.2,11.2,1.8,16.8C256.8,267.3,256.6,267.3,256.3,267.3z"/>
</svg>
